<?xml version="1.0" standalone="no"?>
<!DOCTYPE svg PUBLIC "-//W3C//DTD SVG 20010904//EN"
 "http://www.w3.org/TR/2001/REC-SVG-20010904/DTD/svg10.dtd">
<svg version="1.0" xmlns="http://www.w3.org/2000/svg"
 width="800.000000pt" height="800.000000pt" viewBox="0 0 800.000000 800.000000"
 preserveAspectRatio="xMidYMid meet">
<metadata>
Created by potrace 1.16, written by Peter Selinger 2001-2019
</metadata>
<g transform="translate(0.000000,800.000000) scale(0.100000,-0.100000)"
fill="#000000" stroke="none">
<path d="M3955 3359 c-203 -186 -374 -339 -379 -339 -4 0 -67 53 -138 118 -71
64 -147 132 -168 150 l-38 32 -399 -361 c-219 -198 -448 -407 -510 -462 -62
-56 -112 -105 -113 -109 0 -3 49 9 110 26 108 33 110 34 201 117 50 46 232
211 402 366 l311 281 46 -41 c26 -23 157 -142 293 -265 l246 -223 77 3 76 3
-85 75 c-47 41 -85 78 -84 82 1 4 119 112 262 241 l260 235 35 -32 c19 -18
203 -184 407 -369 l373 -337 85 -18 c47 -10 85 -16 84 -13 0 3 -49 49 -108
101 -59 52 -271 244 -472 425 -201 182 -374 338 -385 348 -20 17 -27 11 -314
-248 -161 -146 -296 -265 -299 -265 -4 0 -22 13 -41 29 l-35 30 30 29 c76 75
638 582 645 582 4 0 185 -158 401 -351 550 -491 630 -562 737 -659 51 -47 108
-89 125 -94 18 -5 70 -22 117 -37 46 -16 85 -27 87 -26 1 2 -70 68 -160 148
-89 79 -419 375 -734 657 -316 281 -574 512 -576 511 -1 0 -168 -153 -372
-340z"/>
<path d="M2947 2773 c-157 -142 -285 -259 -283 -260 2 -2 59 8 128 22 160 32
426 70 598 85 74 7 166 15 204 19 l68 6 -186 168 c-102 92 -199 179 -215 192
l-29 25 -285 -257z"/>
<path d="M3520 2569 c-201 -17 -403 -41 -570 -70 -378 -64 -791 -183 -1070
-307 -99 -44 -208 -102 -165 -87 214 70 733 196 872 210 23 3 63 9 89 15 25 6
49 9 51 6 3 -3 15 -1 27 4 13 4 49 11 82 14 32 4 93 10 134 16 116 14 251 28
290 29 19 1 76 6 125 12 113 13 943 20 1090 9 61 -4 157 -11 215 -14 58 -4
116 -9 130 -11 14 -3 70 -9 125 -14 55 -6 116 -12 135 -15 177 -25 335 -48
380 -57 136 -25 509 -113 655 -154 87 -24 160 -43 162 -41 5 5 -207 103 -307
141 -281 108 -742 224 -1057 265 -40 6 -108 15 -150 20 -219 29 -452 40 -788
39 -192 -1 -397 -6 -455 -10z"/>
</g>
</svg>
